<?xml version="1.0" encoding="utf-8"?>
<!-- Generator: Adobe Illustrator 24.3.0, SVG Export Plug-In . SVG Version: 6.00 Build 0)  -->
<svg version="1.1" id="Layer_1" xmlns="http://www.w3.org/2000/svg" xmlns:xlink="http://www.w3.org/1999/xlink" x="0px" y="0px"
	 viewBox="0 0 44.5 50" style="enable-background:new 0 0 44.5 50;" xml:space="preserve">
<style type="text/css">
	.st0{fill-rule:evenodd;clip-rule:evenodd;fill:#E10098;}
	.st1{fill:#E10098;}
</style>
<path class="st0" d="M22.2,3.2l18.9,10.9v21.8L22.2,46.8L3.4,35.9V14.1L22.2,3.2z M5.5,15.3v16l13.8-24L5.5,15.3z M22.2,6.6
	l-16,27.6h31.9L22.2,6.6z M36.1,36.3H8.4l13.8,8L36.1,36.3z M39,31.3l-13.8-24l13.8,8V31.3z"/>
<circle class="st1" cx="22.2" cy="4.5" r="4.5"/>
<circle class="st1" cx="40" cy="14.7" r="4.5"/>
<circle class="st1" cx="40" cy="35.3" r="4.5"/>
<circle class="st1" cx="22.2" cy="45.5" r="4.5"/>
<circle class="st1" cx="4.5" cy="35.3" r="4.5"/>
<circle class="st1" cx="4.5" cy="14.7" r="4.5"/>
</svg>
