<?xml version="1.0" encoding="utf-8"?>
<!-- Generator: Adobe Illustrator 24.3.0, SVG Export Plug-In . SVG Version: 6.00 Build 0)  -->
<svg version="1.1" id="Layer_1" xmlns="http://www.w3.org/2000/svg" xmlns:xlink="http://www.w3.org/1999/xlink" x="0px" y="0px"
	 viewBox="0 0 52.7 50" style="enable-background:new 0 0 52.7 50;" xml:space="preserve">
<style type="text/css">
	.st0{fill:#764ABC;}
</style>
<g>
	<path class="st0" d="M36.5,34.9c1.9-0.2,3.4-1.9,3.4-3.9c-0.1-2-1.7-3.6-3.8-3.6H36c-2.1,0.1-3.7,1.8-3.6,3.9
		c0.1,1,0.5,1.9,1.1,2.5c-2.3,4.5-5.8,7.8-11,10.5c-3.6,1.9-7.2,2.5-10.9,2.1c-3-0.4-5.4-1.7-6.8-4C2.5,39.1,2.3,35.6,4.1,32
		c1.3-2.5,3.3-4.4,4.6-5.4c-0.3-0.9-0.7-2.3-0.9-3.4c-9.7,7-8.7,16.6-5.8,21c2.2,3.4,6.7,5.4,11.7,5.4c1.3,0,2.7-0.1,4-0.5
		C26.3,47.6,32.8,42.5,36.5,34.9z"/>
	<path class="st0" d="M48.3,26.6c-5.1-6-12.6-9.2-21.2-9.2H26c-0.6-1.2-1.9-2-3.3-2h-0.1c-2.1,0.1-3.7,1.8-3.6,3.9
		c0.1,2,1.7,3.6,3.8,3.6h0.1c1.5-0.1,2.7-1,3.3-2.3h1.2c5.1,0,9.9,1.5,14.3,4.4c3.4,2.2,5.8,5.1,7.1,8.6c1.1,2.8,1.1,5.6-0.1,7.9
		c-1.9,3.6-5,5.5-9.2,5.5c-2.7,0-5.2-0.8-6.6-1.4c-0.7,0.7-2.1,1.7-3,2.4c2.9,1.3,5.8,2.1,8.6,2.1c6.4,0,11.2-3.6,13-7.1
		C53.5,39,53.3,32.3,48.3,26.6z"/>
	<path class="st0" d="M14.2,36.1c0.1,2,1.7,3.6,3.8,3.6h0.1c2.1-0.1,3.7-1.8,3.6-3.9c-0.1-2-1.7-3.6-3.8-3.6h-0.1
		c-0.1,0-0.3,0-0.5,0.1c-2.7-4.6-3.9-9.5-3.5-14.9c0.3-4,1.6-7.5,4-10.4c1.9-2.5,5.7-3.7,8.2-3.8c7.1-0.1,10.1,8.7,10.3,12.3
		c0.9,0.2,2.3,0.7,3.4,1C39,5.6,32.3,0,25.8,0c-6,0-11.6,4.4-13.8,10.8c-3.1,8.6-1.1,16.8,2.7,23.3C14.4,34.6,14.2,35.3,14.2,36.1z"
		/>
</g>
</svg>
